<svg width="87" height="112" viewBox="0 0 87 112" fill="none" xmlns="http://www.w3.org/2000/svg">
<path d="M75.7472 72.8548C82.739 65.1584 87 54.9364 87 43.7192C87 19.7811 67.5944 0.375488 43.6563 0.375488C19.7182 0.375488 0.3125 19.7811 0.3125 43.7192C0.3125 55.21 4.78392 65.6564 12.0817 73.4133L43.6843 111.759L75.7472 72.8548Z" fill="#FF7C03"/>
<circle cx="44.6643" cy="43.6634" r="31.8638" transform="rotate(90 44.6643 43.6634)" fill="white" stroke="#FF7C03" stroke-width="2" stroke-linecap="round" stroke-linejoin="round"/>
<path fill-rule="evenodd" clip-rule="evenodd" d="M20.6293 41.7544L11.1233 41.7544C10.0067 41.7544 9.10147 42.6596 9.10147 43.7763C9.10147 44.8929 10.0067 45.7981 11.1233 45.7981L20.6115 45.7981C20.699 47.742 20.9253 49.6783 21.2901 51.5889C20.3237 52.0671 19.5513 52.8268 18.9447 53.7702C17.7286 55.662 17.0363 58.5179 16.6776 62.3145C16.5726 63.4257 17.3899 64.4024 18.5031 64.4959C19.6163 64.5895 20.6038 63.7645 20.7088 62.6533C21.055 58.9893 21.6842 56.9566 22.347 55.9257L22.3641 55.8992C25.2033 65.0763 31.4093 73.293 40.9624 78.3742C41.9482 78.8986 43.1725 78.5245 43.6969 77.5386C44.2213 76.5528 43.8472 75.3285 42.8613 74.8041C34.8693 70.5533 29.4863 63.8203 26.7443 56.2149C27.2126 56.4775 27.7217 56.7875 28.2745 57.1467C29.7041 58.0758 31.2502 59.2122 32.9648 60.4723L32.9651 60.4725L32.9659 60.4732L32.9671 60.474C33.5032 60.868 34.0557 61.2741 34.6263 61.6897C39.3116 65.1027 45.0368 69.0328 51.4196 70.7253C57.9485 72.4566 65.107 71.8318 72.4429 66.3294C73.3409 65.656 73.5286 64.3895 72.8623 63.5007C72.196 62.6118 70.928 62.4373 70.0301 63.1108C63.7777 67.8004 57.9267 68.2618 52.4966 66.8218C46.9203 65.3432 41.7368 61.8447 37.0358 58.4203C36.5061 58.0344 35.9797 57.6475 35.4588 57.2645L35.4585 57.2644C33.721 55.9871 32.0443 54.7546 30.5089 53.7567C28.8169 52.6571 27.0592 51.6773 25.3538 51.2608C24.9855 49.4611 24.7545 47.6338 24.6611 45.7981L76.7495 45.7981C77.8661 45.7981 78.7714 44.8929 78.7714 43.7763C78.7714 42.6596 77.8661 41.7544 76.7495 41.7544L24.678 41.7544C24.7919 39.8295 25.0571 37.9105 25.4741 36.0193C27.1419 35.5869 28.8567 34.6274 30.5089 33.5536C32.0443 32.5558 33.721 31.3233 35.4585 30.046L35.4604 30.0446C35.9808 29.6621 36.5067 29.2755 37.0359 28.89C41.7368 25.4657 46.9203 21.9672 52.4966 20.4885C57.9267 19.0486 63.7777 19.51 70.0301 24.1996C70.928 24.8731 72.196 24.6985 72.8623 23.8097C73.5286 22.9209 73.3409 21.6544 72.4429 20.9809C65.107 15.4785 57.9485 14.8538 51.4196 16.5851C45.0368 18.2776 39.3116 22.2076 34.6263 25.6206C34.055 26.0368 33.5018 26.4433 32.9652 26.8378L32.9651 26.8378L32.965 26.8379C31.2504 28.0981 29.7042 29.2345 28.2745 30.1636C27.8144 30.4627 27.3845 30.7276 26.9832 30.9594C29.7863 23.5821 35.0818 16.9845 42.8985 12.6141C43.8732 12.0692 44.2215 10.8373 43.6766 9.86268C43.1317 8.88804 41.8998 8.53968 40.9252 9.08461C31.51 14.3487 25.37 22.5337 22.4865 31.5862C22.4411 31.5257 22.3946 31.4587 22.347 31.3847C21.6842 30.3538 21.055 28.3211 20.7088 24.657C20.6038 23.5458 19.6163 22.7208 18.5031 22.8144C17.3899 22.908 16.5726 23.8847 16.6776 24.9959C17.0364 28.7925 17.7286 31.6484 18.9447 33.5401C19.5733 34.5178 20.38 35.2981 21.3962 35.7724C20.9928 37.7479 20.7373 39.7485 20.6293 41.7544Z" fill="#FF7C03"/>
</svg>
